<?xml version="1.0" encoding="iso-8859-1"?>
<!-- Generator: Adobe Illustrator 19.0.0, SVG Export Plug-In . SVG Version: 6.00 Build 0)  -->
<svg version="1.1" id="Layer_1" xmlns="http://www.w3.org/2000/svg" xmlns:xlink="http://www.w3.org/1999/xlink" x="0px" y="0px"
	 viewBox="0 0 512.001 512.001" style="enable-background:new 0 0 512.001 512.001;" xml:space="preserve">
<path id="SVGCleanerId_0" style="fill:#BC2A46;" d="M337.801,0H236.617c-4.124,0-7.468,3.666-7.468,8.19v46.102
	c0,4.524,3.344,8.19,7.468,8.19s7.468-3.666,7.468-8.19h86.248c0,4.524,3.344,8.19,7.468,8.19s7.468-3.666,7.468-8.19V8.19
	C345.269,3.666,341.925,0,337.801,0z"/>
<g>
	<path id="SVGCleanerId_0_1_" style="fill:#BC2A46;" d="M337.801,0H236.617c-4.124,0-7.468,3.666-7.468,8.19v46.102
		c0,4.524,3.344,8.19,7.468,8.19s7.468-3.666,7.468-8.19h86.248c0,4.524,3.344,8.19,7.468,8.19s7.468-3.666,7.468-8.19V8.19
		C345.269,3.666,341.925,0,337.801,0z"/>
</g>
<path style="fill:#D62D46;" d="M287.209,0h-50.592c-4.124,0-7.468,3.666-7.468,8.19v46.102c0,4.524,3.344,8.19,7.468,8.19
	c4.124,0,7.468-3.666,7.468-8.19h43.124V0z"/>
<path style="fill:#39B7B6;" d="M356.263,52.563H218.156c-4.523,0-8.19,3.666-8.19,8.19v180.24c0,4.524,3.667,8.19,8.19,8.19h138.106
	c4.523,0,8.19-3.666,8.19-8.19V60.753C364.452,56.229,360.786,52.563,356.263,52.563z"/>
<path style="fill:#66CBC4;" d="M287.21,52.563h-69.053c-4.523,0-8.19,3.666-8.19,8.19v180.24c0,4.524,3.667,8.19,8.19,8.19h69.053
	V52.563z"/>
<path id="SVGCleanerId_1" style="fill:#BC2A46;" d="M434.09,249.181H332.907c-4.124,0-7.468,3.666-7.468,8.19v46.102
	c0,4.524,3.344,8.19,7.468,8.19c4.124,0,7.468-3.666,7.468-8.19h86.248c0,4.524,3.344,8.19,7.468,8.19
	c4.124,0,7.468-3.666,7.468-8.19v-46.102C441.558,252.848,438.215,249.181,434.09,249.181z"/>
<g>
	<path id="SVGCleanerId_1_1_" style="fill:#BC2A46;" d="M434.09,249.181H332.907c-4.124,0-7.468,3.666-7.468,8.19v46.102
		c0,4.524,3.344,8.19,7.468,8.19c4.124,0,7.468-3.666,7.468-8.19h86.248c0,4.524,3.344,8.19,7.468,8.19
		c4.124,0,7.468-3.666,7.468-8.19v-46.102C441.558,252.848,438.215,249.181,434.09,249.181z"/>
</g>
<path style="fill:#D62D46;" d="M383.497,249.181h-50.592c-4.124,0-7.468,3.666-7.468,8.19v46.102c0,4.524,3.344,8.19,7.468,8.19
	c4.124,0,7.468-3.666,7.468-8.19h43.124V249.181z"/>
<path style="fill:#39B7B6;" d="M452.551,301.744H314.445c-4.523,0-8.19,3.666-8.19,8.19v180.24c0,4.524,3.667,8.19,8.19,8.19
	h138.106c4.523,0,8.19-3.666,8.19-8.19v-180.24C460.741,305.41,457.074,301.744,452.551,301.744z"/>
<path style="fill:#66CBC4;" d="M383.499,301.744h-69.053c-4.523,0-8.19,3.666-8.19,8.19v180.24c0,4.524,3.667,8.19,8.19,8.19h69.053
	V301.744z"/>
<path id="SVGCleanerId_2" style="fill:#BC2A46;" d="M233.445,249.181H132.261c-4.124,0-7.468,3.666-7.468,8.19v46.102
	c0,4.524,3.344,8.19,7.468,8.19s7.468-3.666,7.468-8.19h86.248c0,4.524,3.344,8.19,7.468,8.19c4.124,0,7.468-3.666,7.468-8.19
	v-46.102C240.913,252.848,237.569,249.181,233.445,249.181z"/>
<g>
	<path id="SVGCleanerId_2_1_" style="fill:#BC2A46;" d="M233.445,249.181H132.261c-4.124,0-7.468,3.666-7.468,8.19v46.102
		c0,4.524,3.344,8.19,7.468,8.19s7.468-3.666,7.468-8.19h86.248c0,4.524,3.344,8.19,7.468,8.19c4.124,0,7.468-3.666,7.468-8.19
		v-46.102C240.913,252.848,237.569,249.181,233.445,249.181z"/>
</g>
<path style="fill:#D62D46;" d="M182.853,249.181h-50.592c-4.124,0-7.468,3.666-7.468,8.19v46.102c0,4.524,3.344,8.19,7.468,8.19
	c4.124,0,7.468-3.666,7.468-8.19h43.124V249.181z"/>
<path style="fill:#39B7B6;" d="M251.906,301.744H113.8c-4.523,0-8.19,3.666-8.19,8.19v180.24c0,4.524,3.667,8.19,8.19,8.19h138.106
	c4.523,0,8.19-3.666,8.19-8.19v-180.24C260.095,305.41,256.43,301.744,251.906,301.744z"/>
<path style="fill:#66CBC4;" d="M182.853,301.744H113.8c-4.523,0-8.19,3.666-8.19,8.19v180.24c0,4.524,3.667,8.19,8.19,8.19h69.053
	V301.744z"/>
<path style="fill:#0E4151;" d="M127.537,359.447c-42.059,0-76.277,34.218-76.277,76.277s34.218,76.277,76.277,76.277
	s76.277-34.218,76.277-76.277S169.597,359.447,127.537,359.447z"/>
<path style="fill:#144F66;" d="M127.537,359.447c-42.059,0-76.277,34.218-76.277,76.277s34.218,76.277,76.277,76.277V359.447z"/>
<g>
</g>
<g>
</g>
<g>
</g>
<g>
</g>
<g>
</g>
<g>
</g>
<g>
</g>
<g>
</g>
<g>
</g>
<g>
</g>
<g>
</g>
<g>
</g>
<g>
</g>
<g>
</g>
<g>
</g>
</svg>
