<?xml version="1.0" encoding="iso-8859-1"?>
<!-- Generator: Adobe Illustrator 16.0.0, SVG Export Plug-In . SVG Version: 6.00 Build 0)  -->
<!DOCTYPE svg PUBLIC "-//W3C//DTD SVG 1.1//EN" "http://www.w3.org/Graphics/SVG/1.1/DTD/svg11.dtd">
<svg version="1.1" id="Capa_1" xmlns="http://www.w3.org/2000/svg" xmlns:xlink="http://www.w3.org/1999/xlink" x="0px" y="0px"
	 width="185.787px" height="185.787px" viewBox="0 0 185.787 185.787" style="enable-background:new 0 0 185.787 185.787;"
	 xml:space="preserve">
<g>
	<g>
		<g>
			<path d="M131.456,31.096c-14.961,25.556-49.229,30.292-49.627,30.343c-1.025,0.13-1.94,0.707-2.501,1.575
				s-0.708,1.94-0.403,2.928l15.452,50.138c0.466,1.504,2.264,2.887,4.377,2.312c2.072-0.562,2.884-2.527,2.312-4.376L86.781,67.665
				c42.776-7.285,60.274-41.866,56.94-55.257C141.946,5.272,135.724-0.021,128.376,0c-10.237,0.028-17.032,10.508-15.369,19.008
				C115.641,32.465,128.723,31.965,131.456,31.096z M126.536,7.196c5.354-1.168,9.396,2.716,10.342,6.683
				c0.513,2.149,0.263,8.711-6.686,10.34c-0.604,0.142-8.679,1.309-10.342-6.683C118.874,12.837,121.846,8.22,126.536,7.196z"/>
			<path d="M77.636,75.385c1.196-1.514,0.939-3.707-0.571-4.907c-1.514-1.201-3.713-0.948-4.915,0.56
				C72.02,71.2,58.975,87.215,36.724,87.215c-1.933,0-3.5,1.567-3.5,3.5c0,1.933,1.567,3.5,3.5,3.5
				C62.456,94.214,77.027,76.154,77.636,75.385z"/>
			<path d="M119.762,90.778l-5-18c-0.517-1.862-2.442-2.955-4.31-2.436c-1.861,0.517-2.953,2.446-2.437,4.309l4.994,17.98
				c0.243,0.912,5.727,22.421-16.71,29.755c-12.806,4.188-21.798,11.409-26.727,21.471c-8.419,17.182-1.769,36.233-1.48,37.037
				c0.511,1.428,2.212,2.986,4.468,2.114c1.8-0.696,2.769-2.647,2.124-4.47c-0.06-0.17-5.933-17.158,1.197-31.649
				c4.071-8.272,11.673-14.278,22.594-17.85C121.551,121.497,122.491,100.721,119.762,90.778z"/>
			<path d="M150.716,179.3c-32.946-17.74-42.928-45.138-43.023-45.411c-0.64-1.82-2.635-2.781-4.455-2.146
				c-1.824,0.638-2.789,2.634-2.152,4.457c0.429,1.226,10.855,30.172,46.312,49.266c0.527,0.283,3.409,1.001,4.741-1.424
				C153.069,182.347,152.417,180.217,150.716,179.3z"/>
		</g>
		<path d="M105.764,36.485c0-9.156-7.448-16.604-16.604-16.604c-9.156,0-16.605,7.449-16.605,16.604
			c0,9.155,7.45,16.604,16.605,16.604C98.314,53.089,105.764,45.64,105.764,36.485z M79.744,36.485c0-5.191,4.225-9.415,9.416-9.415
			s9.414,4.224,9.414,9.415c0,5.191-4.223,9.415-9.414,9.415S79.744,41.676,79.744,36.485z"/>
	</g>
</g>
<g>
</g>
<g>
</g>
<g>
</g>
<g>
</g>
<g>
</g>
<g>
</g>
<g>
</g>
<g>
</g>
<g>
</g>
<g>
</g>
<g>
</g>
<g>
</g>
<g>
</g>
<g>
</g>
<g>
</g>
</svg>
