<?xml version="1.0" encoding="iso-8859-1"?>
<!-- Generator: Adobe Illustrator 19.0.0, SVG Export Plug-In . SVG Version: 6.00 Build 0)  -->
<svg version="1.1" id="Layer_1" xmlns="http://www.w3.org/2000/svg" xmlns:xlink="http://www.w3.org/1999/xlink" x="0px" y="0px"
	 viewBox="0 0 350.74 350.74" style="enable-background:new 0 0 350.74 350.74;" xml:space="preserve">
<g id="XMLID_1187_">
	<path id="XMLID_1188_" style="fill:#804C09;" d="M72.666,129.292c0,0-2.329-25.62-32.607-25.62
		c-30.277,0-35.867,38.663-31.209,56.829l8.385-4.192c0,0,9.316,47.048-17.235,58.692c0,0,54.5,19.564,61.487-50.308"/>
	<path id="XMLID_1189_" style="fill:#FF9811;" d="M316.63,26.931l11.948-16.847C221.215-15.904,214.617,110.705,214.617,110.705
		s-0.91,0-2.546,0.001c-0.02-0.032-0.042-0.064-0.061-0.096c-14.879,0.002-87.904,0.016-99.29,0.016
		c-12.688,0-37.555,5.93-53.053,25.914c-38,49,34.999,177.632,34.999,177.632h140c0,0,44.61-50.299,44.61-143.434
		c0-35.773,1.534-46.779,6.654-57.002c5.118-10.222,17.555-14.357,27.776-9.239c2.833,1.419,5.197,3.402,7.029,5.745l30.005-14.979
		L316.63,26.931z"/>
	<path id="XMLID_1190_" style="fill:#BE720D;" d="M164.666,110.618c-22.744,0.004-45.936,0.008-51.946,0.008
		c-12.688,0-37.555,5.93-53.053,25.914c-38,49,34.999,177.632,34.999,177.632h70V110.618z"/>
	<path id="XMLID_1191_" style="fill:#FFFFFF;" d="M214.666,314.172v-40c0-27.615-22.386-50-50-50c-27.613,0-50,22.385-50,50v40
		H214.666z"/>
	<circle id="XMLID_1192_" style="fill:#804C09;" cx="294.666" cy="68.206" r="7.5"/>
	<path id="XMLID_1193_" style="fill:#BE720D;" d="M296.872,266.369c-38.355,23.948-83.658,37.803-132.206,37.803
		S70.814,290.317,32.46,266.369L3.533,295.296c46.084,30.865,101.501,48.876,161.133,48.876s115.049-18.011,161.133-48.876
		L296.872,266.369z"/>
	<path id="XMLID_1194_" style="fill:#804C09;" d="M164.666,304.172c-48.548,0-93.852-13.854-132.206-37.803L3.533,295.296
		c46.084,30.865,101.501,48.876,161.133,48.876L164.666,304.172L164.666,304.172z"/>
	<path id="XMLID_1195_" style="fill:#804C09;" d="M214.617,140.705h28.698l1.259-28.381c0.084-1.246,1.652-22.593,10.87-42.756
		c4.784-10.466,10.259-17.657,15.917-22.579c4.402-3.828,8.917-6.284,13.305-7.844V8.144
		c-65.372,12.999-70.049,102.562-70.049,102.562s-0.03,0-0.076,0v30h0.076V140.705z"/>
	<path id="XMLID_1196_" style="fill:#EA348B;" d="M164.666,110.616h-50v33.556c0,27.615,22.387,50,50,50s50-22.385,50-50v-33.556
		C214.666,110.616,164.666,110.616,164.666,110.616z"/>
	<path id="XMLID_1197_" style="fill:#AF2768;" d="M114.666,110.616v33.556c0,27.615,22.387,50,50,50c0-32.966,0-83.556,0-83.556
		S114.666,110.616,114.666,110.616z"/>
</g>
<g>
</g>
<g>
</g>
<g>
</g>
<g>
</g>
<g>
</g>
<g>
</g>
<g>
</g>
<g>
</g>
<g>
</g>
<g>
</g>
<g>
</g>
<g>
</g>
<g>
</g>
<g>
</g>
<g>
</g>
</svg>
