<?xml version="1.0" encoding="iso-8859-1"?>
<!-- Generator: Adobe Illustrator 16.0.0, SVG Export Plug-In . SVG Version: 6.00 Build 0)  -->
<!DOCTYPE svg PUBLIC "-//W3C//DTD SVG 1.1//EN" "http://www.w3.org/Graphics/SVG/1.1/DTD/svg11.dtd">
<svg version="1.1" id="Capa_1" xmlns="http://www.w3.org/2000/svg" xmlns:xlink="http://www.w3.org/1999/xlink" x="0px" y="0px"
	 width="578.656px" height="578.656px" viewBox="0 0 578.656 578.656" style="enable-background:new 0 0 578.656 578.656;"
	 xml:space="preserve">
<g>
	<path d="M69.328,176.662h145.828c5.288,0,9.562-4.284,9.562-9.562c0-5.279-4.274-9.562-9.562-9.562H69.328
		c-5.288,0-9.562,4.284-9.562,9.562C59.766,172.378,64.04,176.662,69.328,176.662z"/>
	<path d="M9.562,210.217h145.828c5.288,0,9.562-4.284,9.562-9.562s-4.274-9.562-9.562-9.562H9.562c-5.288,0-9.562,4.284-9.562,9.562
		C0,205.942,4.274,210.217,9.562,210.217z"/>
	<path d="M569.094,150.317H423.266c-5.289,0-9.562,4.284-9.562,9.562c0,5.278,4.273,9.562,9.562,9.562h145.828
		c5.287,0,9.562-4.284,9.562-9.562C578.656,154.601,574.381,150.317,569.094,150.317z"/>
	<path d="M353.938,193.444c0,5.278,4.273,9.562,9.562,9.562h145.828c5.287,0,9.562-4.284,9.562-9.562
		c0-5.279-4.275-9.562-9.562-9.562H363.5C358.221,183.882,353.938,188.156,353.938,193.444z"/>
	<path d="M278.345,183.499c20.206,13.703,47.698,8.444,61.401-11.762c4.475-6.588,6.732-13.961,7.305-21.382l4.695,1.645
		c4.992,1.75,10.357-1.014,10.137-6.292c-0.162-3.72-0.994-8.224-3.385-12.928c-4.246-8.434,3.5-41.807-31.375-54.057
		c-24.939-8.769-53.148,21.621-61.821,33.086c-2.649,3.519-1.625,7.564,1.635,9.869c-0.105,0.144-0.229,0.249-0.334,0.401
		C252.89,142.294,258.159,169.796,278.345,183.499z"/>
	<path d="M167.822,341.319c-127.544-14.144-152.292,39.12-154.683,45.259c-0.65,1.664-0.995,3.443-0.995,5.231v69.873
		c0,7.927,6.426,14.344,14.344,14.344c7.918,0,14.344-6.417,14.344-14.344v-66.097c5.422-7.697,32.035-36.175,124.81-25.655
		c8.845,1.004,17.222,1.721,25.302,2.256l16.515,15.233c3.882,3.586,4.504,9.936,1.367,14.182l-41.616,56.533
		c-9.381,12.766-7.325,30.074,4.628,38.651c11.934,8.587,29.118,5.116,38.346-7.755l58.972-82.171
		c3.05-4.303,3.5-11.532,0.975-16.16l-11.054-20.234c25.302-3.567,45.9-10.586,63.886-20.416l10.223,9.056
		c3.645,3.223,8.176,4.81,12.67,4.81c5.289,0,10.549-2.18,14.326-6.444c7-7.908,6.271-19.996-1.637-26.995l-3.164-2.802
		c12.623-10.596,24.576-22.625,36.979-35.841c29.041-30.935,62.883-31.91,86.195-27.272c2.592,0.517,5.27,0.307,7.756-0.602
		l31.518-11.58c0.469-0.173,0.889-0.297,1.254-0.402c-0.029,0.383-0.088,0.804-0.184,1.291l-5.641,30.791
		c-0.803,3.146-0.535,6.513,0.842,9.524c6.445,14.134,10.299,31.71,11.465,52.25c0.115,1.836,0.574,3.643,1.367,5.316
		c0,0,6.234,13.196,11.342,23.495c2.906,5.861,3.527,10.241,3.682,11.686c-1.855,0.096-6.131-0.718-10.605-3.51l-1.721-1.09
		c-10.471-6.607-19.756-12.211-27.406-13.731c-4.943-0.976-10.318-1.195-15.529-1.396c-16.516-0.66-22.865-2.085-25.58-8.798
		c-2.391-5.881-8.32-9.533-14.641-8.902c-6.301,0.593-11.475,5.26-12.719,11.475c-0.314,1.559-7.562,38.537-1.48,70.074
		c1.49,7.784,9.045,12.833,16.791,11.37c7.773-1.502,12.881-9.018,11.369-16.802c-2.113-10.997-2.189-23.208-1.568-33.669
		c9.363,3.213,19.25,3.614,26.689,3.911c4.293,0.172,8.357,0.334,11.025,0.86c3.463,0.851,13.818,7.392,17.729,9.858l1.809,1.147
		c17.125,10.72,36.385,10.424,46.809-0.688c9.467-10.098,9.867-26.736,1.061-44.522c-3.662-7.392-7.918-16.304-9.945-20.55
		c-1.434-20.98-5.449-39.569-11.953-55.377l5.039-27.568c2.209-12.067-0.994-22.759-8.797-29.318
		c-7.783-6.55-18.867-7.899-30.398-3.653l-27.828,10.232c-25.799-4.303-70.686-3.949-108.648,36.51
		c-12.881,13.712-24.881,25.914-37.734,36.271l-33.238-29.443l10.279-48.243c0.402-1.875,0.422-3.729,0.268-5.546l0.65-1.252
		c0.967-5.193-2.275-10.854-7.238-12.623l-2.803-1.004c-1.711-0.994-3.557-1.826-5.604-2.256c-0.324-0.067-0.641-0.058-0.975-0.105
		l-40.784-14.659c-4.963-1.788-10.958,0.574-13.369,5.269l-72.359,140.377C168.166,339.693,168.032,340.515,167.822,341.319z
		 M251.618,339.377l18.705-35.945l29.51,26.134c-14.133,6.407-30.275,10.883-49.658,13.168
		C250.547,341.529,250.997,340.363,251.618,339.377z"/>
</g>
<g>
</g>
<g>
</g>
<g>
</g>
<g>
</g>
<g>
</g>
<g>
</g>
<g>
</g>
<g>
</g>
<g>
</g>
<g>
</g>
<g>
</g>
<g>
</g>
<g>
</g>
<g>
</g>
<g>
</g>
</svg>
