<?xml version="1.0" encoding="iso-8859-1"?>
<!-- Generator: Adobe Illustrator 19.0.0, SVG Export Plug-In . SVG Version: 6.00 Build 0)  -->
<svg version="1.1" id="Layer_1" xmlns="http://www.w3.org/2000/svg" xmlns:xlink="http://www.w3.org/1999/xlink" x="0px" y="0px"
	 viewBox="0 0 512 512" style="enable-background:new 0 0 512 512;" xml:space="preserve">
<rect x="301.822" y="244.996" transform="matrix(-0.7598 -0.6502 0.6502 -0.7598 383.6947 664.7828)" style="fill:#AEADB1;" width="25.667" height="33.028"/>
<rect x="263.88" y="189.767" transform="matrix(-0.7598 -0.6502 0.6502 -0.7598 346.7747 546.7202)" style="fill:#7A797E;" width="21.009" height="39.063"/>
<polyline style="fill:#D8D7D9;" points="209.624,174.274 56.285,43.06 64.771,22.658 48.73,8.932 35.064,24.902 25.832,17.002 
	7.731,38.155 184.382,189.317 "/>
<polygon style="fill:#AEADB1;" points="278.81,322.951 169.984,229.828 194.369,161.219 323.01,271.299 "/>
<path style="fill:#998269;" d="M323.01,271.299c28.307,24.223,29.146,44.994,29.146,44.994
	c50.181-3.902,103.97,56.223,152.113,97.421l-76.461,89.354c-3.251-41.818-60.638-97.429-108.716-112.546
	c-13.367-4.204-22.522-16.545-23.045-30.549c-0.449-12.063-4.397-26.032-17.238-37.02L323.01,271.299z"/>
<rect x="226.589" y="126.606" transform="matrix(-0.7598 -0.6502 0.6502 -0.7598 347.1604 427.0078)" style="fill:#D8D7D9;" width="51.748" height="45.532"/>
<rect x="262.447" y="176.026" transform="matrix(-0.7598 -0.6502 0.6502 -0.7598 407.6144 535.3564)" style="fill:#AEADB1;" width="80.518" height="32.704"/>
<g>
	
		<rect x="308.436" y="200.083" transform="matrix(0.6502 -0.7598 0.7598 0.6502 -46.894 320.6695)" style="fill:#7A797E;" width="32.704" height="22.355"/>
	<path style="fill:#7A797E;" d="M254.08,301.79c-10.646,12.442-9.192,31.159,3.25,41.805l19.277-22.528L254.08,301.79z"/>
</g>
<path style="fill:#725B4B;" d="M504.08,413.902c-10.592-9.065-21.459-19.045-32.5-29.058l-63.104,73.744
	c10.871,15.077,18.052,30.647,19.143,44.669L504.08,413.902z"/>
<g style="opacity:0.18;">
	<polygon style="fill:#59575C;" points="191.156,171.465 19.232,24.714 7.731,38.155 184.811,189.317 	"/>
	<path style="fill:#59575C;" d="M490.749,401.841l-65.11,76.089c-0.001-0.009,3.519-4.103,3.519-4.112l0,0
		c-1.091-14.021-11.979-25.292-22.85-40.368l0.176-0.205c-21.552-29.882-45.811-55.23-77.764-65.278
		c-13.367-4.204-22.522-16.545-23.045-30.549c-0.423-11.355-15.749-26.98-26.87-37.637c0.001-0.001,0.001-0.001,0.002-0.002
		l-0.082-0.071c-0.67-0.639-1.359-1.273-2.085-1.895l-2.202-1.884l-0.053,0.061l-98.059-84.015l-6.346,17.852l92.813,79.708
		l-7.634,8.922c-2.617-2.239-4.742-4.839-6.377-7.659c-4.172,11.308-1.149,24.501,8.544,32.797l19.277-22.528l2.202,1.884
		c12.841,10.988,16.789,24.957,17.238,37.02c0.522,14.003,9.676,26.345,23.045,30.549c31.952,10.047,68.009,37.979,89.56,67.861
		l-0.176,0.205c10.871,15.077,18.052,30.647,19.143,44.669l0.186-0.216c0.001,0.009,0.002,0.019,0.003,0.029l76.461-89.354
		C499.808,409.896,495.299,405.917,490.749,401.841z"/>
</g>
<path d="M511.976,413.113c-0.159-2.044-1.124-3.942-2.682-5.275c-8.825-7.551-17.694-15.611-27.083-24.144
	c-40.292-36.615-81.88-74.413-123.779-75.301c-1.983-6.937-6.68-17.998-17.753-30.573l7.804-9.12
	c2.776-3.244,2.397-8.125-0.847-10.901l-19.501-16.686c-1.559-1.333-3.578-1.989-5.626-1.834c-2.044,0.159-3.942,1.124-5.275,2.682
	l-7.024,8.209l-27.017-23.119l9.729-11.37l7.725,6.609c0.001,0.001,0.003,0.003,0.004,0.004c0.002,0.001,0.003,0.003,0.005,0.004
	l16.979,14.529c1.458,1.247,3.244,1.858,5.023,1.858c2.18,0,4.349-0.917,5.878-2.705l21.262-24.847
	c1.333-1.559,1.994-3.582,1.834-5.626c-0.159-2.044-1.124-3.942-2.682-5.275l-16.983-14.533l0,0h-0.001l-38.408-32.866
	c0.81-1.363,1.195-2.947,1.07-4.549c-0.159-2.044-1.124-3.942-2.681-5.275l-39.316-33.644c-1.558-1.333-3.579-1.994-5.626-1.834
	c-2.044,0.159-3.942,1.124-5.275,2.682l-29.606,34.598c-2.776,3.244-2.397,8.124,0.847,10.9l39.316,33.643
	c1.406,1.203,3.189,1.858,5.026,1.858c0.199,0,0.4-0.007,0.6-0.023c1.602-0.125,3.109-0.749,4.329-1.761l2.969,2.54l-9.729,11.37
	l-56.087-47.994c-0.001-0.001-0.002-0.001-0.002-0.002L65.581,40.839l6.328-15.213c1.287-3.093,0.434-6.664-2.112-8.843
	L53.756,3.057c-3.243-2.774-8.124-2.396-10.9,0.847L34.217,14l-3.358-2.874c-1.558-1.333-3.579-1.992-5.626-1.834
	c-2.044,0.159-3.942,1.124-5.275,2.682L1.857,33.129c-2.776,3.244-2.397,8.124,0.847,10.9l172.614,147.708l-12.619,35.503
	c-1.072,3.016-0.174,6.382,2.258,8.463l78.837,67.461c-8.284,15.173-5.138,34.628,8.509,46.306c1.405,1.203,3.189,1.858,5.026,1.858
	c0.199,0,0.4-0.007,0.6-0.023c2.044-0.159,3.942-1.124,5.275-2.682l14.07-16.443c6.911,7.413,10.628,16.833,11.047,28.081
	c0.646,17.364,12.081,32.489,28.451,37.637c47.376,14.896,100.488,69.265,103.327,105.771c0.242,3.117,2.339,5.782,5.312,6.751
	c0.788,0.257,1.595,0.381,2.395,0.381c2.22,0,4.381-0.959,5.875-2.706l76.461-89.354
	C511.476,417.182,512.136,415.158,511.976,413.113z M281.139,185.249L281.139,185.249l-8.751-7.489l11.21-13.099l32.442,27.762
	l-11.209,13.099l-23.553-20.154L281.139,185.249z M321.814,220.055l-5.236-4.481l11.209-13.099l5.236,4.481L321.814,220.055z
	 M228.899,148.992l19.552-22.85l27.568,23.59l-19.553,22.85L228.899,148.992z M277.061,202.109l4.113,3.52l-9.729,11.37
	l-4.214-3.607l9.729-11.37L277.061,202.109z M323.956,257.888l7.753,6.634l-1.998,2.335l-7.753-6.634L323.956,257.888z
	 M18.631,37.308l8.048-9.406l3.358,2.874c3.244,2.776,8.126,2.398,10.9-0.847l8.639-10.096l5.897,5.046l-6.328,15.213
	c-1.287,3.093-0.434,6.664,2.111,8.843l134.046,114.704l-4.441,12.494L18.631,37.308z M197.887,174.405l114.222,97.741
	l-34.146,39.904l-98.914-84.641L197.887,174.405z M257.391,331.634c-1.485-2.698-2.39-5.705-2.636-8.868
	c-0.246-3.161,0.183-6.273,1.233-9.169l9.719,8.316L257.391,331.634z M321.411,383.146c-10.145-3.19-17.234-12.618-17.638-23.462
	c-0.54-14.493-5.486-27.204-14.398-37.188l34.322-40.11c18.899,18.434,20.64,33.293,20.734,34.276
	c0.041,2.115,0.946,4.016,2.511,5.446c1.578,1.442,3.679,2.063,5.813,1.893c34.202-2.649,71.595,28.304,108.25,61.343
	l-52.014,60.785c-4.016-4.973-8.428-9.919-13.229-14.781C373.488,408.8,345.694,390.781,321.411,383.146z M432.078,486.187
	c-2.913-8.778-7.542-17.987-13.682-27.268l54.07-63.188c7.189,6.532,14.086,12.794,20.934,18.795L432.078,486.187z"/>
<g>
</g>
<g>
</g>
<g>
</g>
<g>
</g>
<g>
</g>
<g>
</g>
<g>
</g>
<g>
</g>
<g>
</g>
<g>
</g>
<g>
</g>
<g>
</g>
<g>
</g>
<g>
</g>
<g>
</g>
</svg>
