<?xml version="1.0" encoding="iso-8859-1"?>
<!-- Generator: Adobe Illustrator 19.0.0, SVG Export Plug-In . SVG Version: 6.00 Build 0)  -->
<svg version="1.1" id="Layer_1" xmlns="http://www.w3.org/2000/svg" xmlns:xlink="http://www.w3.org/1999/xlink" x="0px" y="0px"
	 viewBox="0 0 512 512" style="enable-background:new 0 0 512 512;" xml:space="preserve">
<g>
	<g>
		<path d="M511.976,413.113c-0.159-2.044-1.124-3.942-2.682-5.275c-8.825-7.551-17.694-15.612-27.083-24.144
			c-40.292-36.615-81.88-74.413-123.779-75.301c-1.983-6.937-6.68-17.998-17.753-30.573l7.804-9.12
			c2.776-3.244,2.397-8.125-0.847-10.901l-19.501-16.686c-1.559-1.333-3.578-1.989-5.626-1.834
			c-2.044,0.159-3.942,1.124-5.275,2.682l-7.024,8.209l-27.017-23.119l9.729-11.37l7.725,6.609c0.001,0.001,0.003,0.003,0.004,0.004
			c0.002,0.001,0.003,0.003,0.005,0.004l16.979,14.529c1.458,1.247,3.244,1.857,5.023,1.857c2.18,0,4.349-0.917,5.878-2.705
			l21.262-24.847c1.333-1.559,1.994-3.582,1.834-5.626c-0.159-2.044-1.124-3.942-2.682-5.275l-16.984-14.533h-0.001l-38.408-32.866
			c0.81-1.363,1.195-2.947,1.07-4.549c-0.159-2.044-1.124-3.942-2.681-5.275l-39.316-33.644c-1.558-1.333-3.579-1.994-5.626-1.834
			c-2.044,0.159-3.942,1.124-5.275,2.682l-29.606,34.598c-2.776,3.244-2.397,8.124,0.847,10.9l39.316,33.643
			c1.406,1.203,3.189,1.857,5.026,1.857c0.199,0,0.4-0.007,0.6-0.023c1.602-0.125,3.109-0.749,4.329-1.761l2.969,2.54l-9.729,11.37
			l-56.087-47.994c-0.001-0.001-0.002-0.001-0.002-0.002L65.581,40.839l6.328-15.213c1.287-3.093,0.434-6.664-2.112-8.843
			L53.756,3.057c-3.243-2.774-8.124-2.396-10.9,0.847L34.217,14l-3.358-2.874c-1.557-1.333-3.579-1.992-5.626-1.834
			c-2.044,0.159-3.942,1.124-5.275,2.682L1.857,33.129c-2.776,3.244-2.397,8.124,0.847,10.9l172.614,147.708l-12.619,35.503
			c-1.072,3.016-0.174,6.382,2.258,8.463l78.837,67.461c-8.284,15.173-5.138,34.628,8.509,46.306
			c1.405,1.203,3.189,1.857,5.026,1.857c0.199,0,0.4-0.007,0.6-0.023c2.044-0.159,3.942-1.124,5.275-2.682l14.07-16.443
			c6.911,7.412,10.628,16.833,11.047,28.081c0.646,17.364,12.081,32.489,28.451,37.637
			c47.376,14.896,100.488,69.265,103.326,105.771c0.242,3.117,2.339,5.782,5.312,6.751c0.788,0.257,1.595,0.381,2.395,0.381
			c2.22,0,4.381-0.959,5.875-2.706l76.461-89.354C511.476,417.182,512.136,415.158,511.976,413.113z M323.956,257.888l7.753,6.634
			l-1.998,2.335l-7.753-6.634L323.956,257.888z M327.786,202.475l5.236,4.481l-11.209,13.099l-5.236-4.481L327.786,202.475z
			 M316.04,192.423l-11.209,13.099l-23.553-20.154l-0.139-0.119l-8.751-7.489l11.21-13.099L316.04,192.423z M281.173,205.629
			l-9.729,11.37l-4.214-3.607l9.729-11.37l0.101,0.087L281.173,205.629z M256.466,172.582l-27.567-23.59l19.552-22.85l27.568,23.59
			L256.466,172.582z M18.631,37.308l8.049-9.406l3.358,2.874c3.244,2.776,8.126,2.398,10.9-0.847l8.639-10.096l5.897,5.046
			l-6.328,15.213c-1.287,3.093-0.434,6.664,2.111,8.843l134.046,114.704l-4.441,12.494L18.631,37.308z M257.391,331.634
			c-1.485-2.698-2.39-5.706-2.636-8.868c-0.246-3.161,0.183-6.273,1.233-9.169l9.719,8.317L257.391,331.634z M277.962,312.05
			l-98.914-84.641l18.838-53.004l114.222,97.741L277.962,312.05z M395.759,431.348c-22.272-22.548-50.065-40.567-74.349-48.202
			c-10.145-3.19-17.234-12.618-17.638-23.462c-0.54-14.493-5.486-27.204-14.398-37.188l34.322-40.11
			c18.899,18.434,20.64,33.293,20.734,34.276c0.041,2.115,0.946,4.016,2.511,5.446c1.578,1.442,3.679,2.063,5.813,1.893
			c34.202-2.649,71.595,28.304,108.25,61.343l-52.014,60.785C404.973,441.156,400.561,436.209,395.759,431.348z M432.078,486.187
			c-2.913-8.778-7.542-17.987-13.682-27.268l54.07-63.188c7.189,6.532,14.086,12.794,20.934,18.795L432.078,486.187z"/>
	</g>
</g>
<g>
</g>
<g>
</g>
<g>
</g>
<g>
</g>
<g>
</g>
<g>
</g>
<g>
</g>
<g>
</g>
<g>
</g>
<g>
</g>
<g>
</g>
<g>
</g>
<g>
</g>
<g>
</g>
<g>
</g>
</svg>
