<?xml version="1.0" encoding="iso-8859-1"?>
<!-- Generator: Adobe Illustrator 19.0.0, SVG Export Plug-In . SVG Version: 6.00 Build 0)  -->
<svg xmlns="http://www.w3.org/2000/svg" xmlns:xlink="http://www.w3.org/1999/xlink" version="1.1" id="Layer_1" x="0px" y="0px" viewBox="0 0 481.701 481.701" style="enable-background:new 0 0 481.701 481.701;" xml:space="preserve" width="512" height="512">
<g>
	
		<rect x="285.31" y="230.07" transform="matrix(0.7598 0.6502 -0.6502 0.7598 231.5221 -134.4796)" style="fill:#AEADB1;" width="24.899" height="32.042"/>
	
		<rect x="248.503" y="176.497" transform="matrix(0.7598 0.6502 -0.6502 0.7598 189.2099 -121.2462)" style="fill:#7A797E;" width="20.381" height="37.895"/>
	<polyline style="fill:#D8D7D9;" points="195.861,161.476 47.103,34.183 55.336,14.39 39.774,1.074 26.517,16.567 17.56,8.903    0,29.424 171.373,176.07  "/>
	<polygon style="fill:#AEADB1;" points="262.979,305.71 157.405,215.37 181.061,148.811 305.858,255.601  "/>
	<path style="fill:#998269;" d="M305.858,255.601c27.461,23.499,28.275,43.65,28.275,43.65   c48.682-3.785,100.863,54.543,147.568,94.51l-74.176,86.684c-3.154-40.568-58.826-94.518-105.467-109.183   c-12.968-4.078-21.849-16.051-22.356-29.636c-0.436-11.703-4.266-25.254-16.723-35.914L305.858,255.601z"/>
	
		<rect x="212.317" y="115.221" transform="matrix(0.7598 0.6502 -0.6502 0.7598 146.3016 -121.377)" style="fill:#D8D7D9;" width="50.199" height="44.175"/>
	
		<rect x="247.106" y="163.157" transform="matrix(0.7598 0.6502 -0.6502 0.7598 185.1288 -143.0495)" style="fill:#AEADB1;" width="78.109" height="31.726"/>
	
		<rect x="291.733" y="186.519" transform="matrix(-0.6502 0.7598 -0.7598 -0.6502 657.5373 91.969)" style="fill:#7A797E;" width="31.726" height="21.686"/>
	<path style="fill:#7A797E;" d="M238.988,285.182c-10.328,12.07-8.917,30.228,3.153,40.556l18.701-21.855L238.988,285.182z"/>
	<g>
		<path style="fill:#725B4B;" d="M481.518,393.943c-10.276-8.794-20.818-18.476-31.529-28.19l-61.218,71.54    c10.546,14.626,17.513,29.731,18.571,43.334L481.518,393.943z"/>
	</g>
	<g style="opacity:0.18;">
		<polygon style="fill:#59575C;" points="177.944,158.75 11.158,16.385 0,29.424 171.789,176.07   "/>
		<path style="fill:#59575C;" d="M468.585,382.243l-63.164,73.815c-0.001-0.009,3.414-3.98,3.414-3.989l0,0    c-1.058-13.602-11.621-24.536-22.167-39.162l0.171-0.199c-20.908-28.989-44.442-53.58-75.44-63.327    c-12.968-4.078-21.849-16.051-22.356-29.636c-0.41-11.016-15.278-26.174-26.067-36.512c0.001-0.001,0.001-0.001,0.002-0.002    l-0.08-0.069c-0.65-0.62-1.318-1.235-2.023-1.838l-2.136-1.828l-0.051,0.059l-95.129-81.505l-6.156,17.319l90.04,77.326    l-7.406,8.655c-2.539-2.172-4.6-4.694-6.186-7.43c-4.047,10.97-1.115,23.769,8.289,31.817l18.701-21.855l2.136,1.828    c12.457,10.66,16.287,24.211,16.723,35.914c0.506,13.585,9.387,25.558,22.356,29.636c30.997,9.747,65.977,36.844,86.884,65.833    l-0.171,0.199c10.546,14.626,17.513,29.731,18.571,43.334l0.18-0.21c0.001,0.009,0.002,0.018,0.003,0.028l74.176-86.684    C477.374,390.058,472.999,386.197,468.585,382.243z"/>
	</g>
</g>















</svg>
