<?xml version="1.0" encoding="iso-8859-1"?>
<!-- Generator: Adobe Illustrator 19.0.0, SVG Export Plug-In . SVG Version: 6.00 Build 0)  -->
<svg version="1.1" id="Layer_1" xmlns="http://www.w3.org/2000/svg" xmlns:xlink="http://www.w3.org/1999/xlink" x="0px" y="0px"
	 viewBox="0 0 503.467 503.467" style="enable-background:new 0 0 503.467 503.467;" xml:space="preserve">
<g transform="translate(1 1)">
	<path style="fill:#AE938D;" d="M328.387,216.6c0-33.28-34.133-68.267-76.8-68.267s-76.8,34.987-76.8,68.267
		s34.133,59.733,76.8,59.733S328.387,249.88,328.387,216.6 M341.187,284.867c-23.893,16.213-53.76,25.6-89.6,25.6
		s-66.56-9.387-89.6-25.6c-34.987-23.893-55.467-61.44-55.467-102.4c0-26.453,5.973-52.907,17.067-76.8
		c5.12-11.947,17.067-28.16,17.067-28.16c9.387-12.8,20.48-23.04,32.427-32.427c21.333-15.36,47.787-24.747,78.507-24.747
		c29.867,0,56.32,9.387,77.653,24.747c12.8,9.387,23.893,20.48,33.28,32.427l17.067,28.16c11.947,23.893,17.067,50.347,17.067,76.8
		C396.654,223.427,376.174,261.827,341.187,284.867z M499.054,310.467c0,51.2-162.133,17.067-162.133,17.067
		s17.067,17.067,17.067,36.693c-5.12-1.707-11.093-2.56-17.067-2.56c-33.28,0-59.733,30.72-59.733,68.267
		c0,9.387,1.707,17.92,4.267,25.6c-1.707,0.853-10.24,8.533-29.867,8.533c-21.333,0-29.867-8.533-29.867-8.533h-0.853
		c2.56-7.68,4.267-16.213,4.267-25.6c0-37.547-26.453-68.267-59.733-68.267c-5.973,0-11.947,0.853-17.067,2.56
		c0-19.627,17.067-36.693,17.067-36.693S3.267,361.667,3.267,310.467s102.4-34.133,102.4-34.133s31.573,2.56,54.613,8.533l0,0
		c23.893,16.213,53.76,25.6,89.6,25.6s65.707-9.387,89.6-25.6c27.307-6.827,55.467-8.533,55.467-8.533
		S499.054,259.267,499.054,310.467z"/>
	<path style="fill:#FFD0A1;" d="M251.587,148.333c42.667,0,76.8,34.987,76.8,68.267s-34.133,59.733-76.8,59.733
		s-76.8-26.453-76.8-59.733S208.92,148.333,251.587,148.333"/>
	<path style="fill:#AAB1BA;" d="M268.654,182.467c0,8.533-8.533,17.067-17.067,17.067S234.52,191,234.52,182.467
		C234.52,173.933,268.654,173.933,268.654,182.467"/>
	<g>
		<path style="fill:#FFD0A1;" d="M225.987,429.933c0,9.387-1.707,17.92-4.267,25.6C213.187,480.28,191,498.2,166.254,498.2
			c-33.28,0-59.733-30.72-59.733-68.267c0-30.72,17.92-57.173,42.667-65.707c5.12-1.707,11.093-2.56,17.067-2.56
			C199.533,361.667,225.987,392.387,225.987,429.933z M281.454,455.533c-2.56-7.68-4.267-17.067-4.267-25.6
			c0-37.547,26.453-68.267,59.733-68.267c5.973,0,11.947,0.853,17.067,2.56c24.747,8.533,42.667,34.133,42.667,65.707
			c0,37.547-26.453,68.267-59.733,68.267C312.174,498.2,290.84,481.133,281.454,455.533z"/>
		<path style="fill:#FFD0A1;" d="M379.587,3.267c28.16,0,51.2,23.04,51.2,51.2s-23.04,51.2-51.2,51.2l-17.067-28.16
			c-9.387-12.8-20.48-23.893-33.28-32.427C333.507,21.187,354.84,3.267,379.587,3.267z M123.587,3.267
			c25.6,0,46.08,17.92,49.493,41.813c-12.8,8.533-23.893,19.627-32.427,32.427c0,0-11.947,16.213-17.067,28.16
			c-28.16,0-51.2-23.04-51.2-51.2S95.427,3.267,123.587,3.267z"/>
	</g>
	<path style="fill:#F2EDDA;" d="M166.254,412.867c14.507,0,25.6,11.093,25.6,25.6c0,14.507-11.093,25.6-25.6,25.6
		c-14.507,0-25.6-11.093-25.6-25.6C140.654,423.96,151.747,412.867,166.254,412.867z M336.92,412.867
		c14.507,0,25.6,11.093,25.6,25.6c0,14.507-11.093,25.6-25.6,25.6s-25.6-11.093-25.6-25.6
		C311.32,423.96,322.414,412.867,336.92,412.867z"/>
</g>
<path style="fill:#51565F;" d="M337.92,503.467c-24.747,0-46.933-16.213-57.173-40.107c-5.12,2.56-14.507,5.973-28.16,5.973
	c-13.653,0-23.04-3.413-28.16-6.827c-10.24,23.893-32.427,40.96-57.173,40.96c-34.987,0-64-32.427-64-72.533
	c0-31.573,17.92-58.88,42.667-68.267c0.853-11.093,5.973-20.48,10.24-27.307c-31.573,5.973-118.613,18.773-145.92-4.267
	c-5.973-5.12-9.387-11.947-9.387-19.627c0-11.093,4.267-19.627,11.947-26.453c27.307-23.04,93.013-12.8,95.573-11.947
	c2.56,0,4.267,2.56,3.413,5.12c0,2.56-2.56,4.267-5.12,3.413c-0.853,0-64-10.24-88.747,10.24c-5.973,5.12-8.533,11.947-8.533,19.627
	c0,5.12,1.707,9.387,5.973,12.8c30.72,24.747,149.333,0,151.04,0s3.413,0.853,4.267,2.56c0.853,1.707,0.853,3.413-0.853,5.12
	c0,0-12.8,12.8-15.36,28.16c4.267-0.853,7.68-1.707,11.947-1.707c34.987,0,64,32.427,64,72.533c0,8.533-0.853,16.213-3.413,23.893
	c3.413,1.707,11.093,5.973,24.747,5.973c13.653,0,21.333-3.413,24.747-5.973c-2.56-7.68-3.413-15.36-3.413-23.893
	c0-40.107,29.013-72.533,64-72.533c4.267,0,8.533,0.853,11.947,1.707c-2.56-15.36-15.36-28.16-15.36-28.16
	c-1.707-1.707-1.707-3.413-0.853-5.12c0.853-1.707,2.56-2.56,4.267-2.56c0.853,0,120.32,24.747,151.04,0
	c4.267-3.413,5.973-7.68,5.973-12.8c0-8.533-2.56-14.507-8.533-19.627c-23.893-20.48-87.893-10.24-88.747-10.24
	c-2.56,0-4.267-0.853-5.12-3.413s0.853-4.267,3.413-5.12c2.56-0.853,68.267-11.093,95.573,11.947
	c7.68,6.827,11.947,15.36,11.947,26.453c0,7.68-3.413,14.507-9.387,19.627c-28.16,23.04-114.347,9.387-145.92,4.267
	c4.267,6.827,9.387,16.213,10.24,27.307c24.747,10.24,42.667,36.693,42.667,68.267C401.92,471.04,372.907,503.467,337.92,503.467z
	 M286.72,456.533c8.533,22.187,28.16,38.4,51.2,38.4c30.72,0,55.467-29.013,55.467-64s-24.747-64-55.467-64
	s-55.467,29.013-55.467,64c0,7.68,1.707,15.36,3.413,23.04C286.72,454.827,286.72,455.68,286.72,456.533z M167.254,366.933
	c-30.72,0-55.467,29.013-55.467,64s24.747,64,55.467,64s55.467-29.013,55.467-64S197.974,366.933,167.254,366.933z M337.92,469.333
	c-16.213,0-29.867-13.653-29.867-29.867c0-16.213,13.653-29.867,29.867-29.867s29.867,13.653,29.867,29.867
	C367.787,455.68,354.133,469.333,337.92,469.333z M337.92,418.133c-11.947,0-21.333,9.387-21.333,21.333
	c0,11.947,9.387,21.333,21.333,21.333s21.333-9.387,21.333-21.333C359.254,427.52,349.867,418.133,337.92,418.133z M167.254,469.333
	c-16.213,0-29.867-13.653-29.867-29.867c0-16.213,13.653-29.867,29.867-29.867s29.867,13.653,29.867,29.867
	C197.12,455.68,183.467,469.333,167.254,469.333z M167.254,418.133c-11.947,0-21.333,9.387-21.333,21.333
	c0,11.947,9.387,21.333,21.333,21.333s21.333-9.387,21.333-21.333C188.587,427.52,179.2,418.133,167.254,418.133z M252.587,315.733
	c-98.133,0-149.333-66.56-149.333-132.267c0-25.6,5.12-50.347,14.507-72.533C90.454,107.52,69.12,84.48,69.12,55.467
	C69.12,24.747,93.867,0,124.587,0c24.747,0,46.08,16.213,52.907,39.253c22.187-14.507,47.787-22.187,75.093-22.187
	s52.907,7.68,75.093,21.333C334.507,15.36,355.84,0,380.587,0c30.72,0,55.467,24.747,55.467,55.467
	c0,28.16-21.333,52.053-48.64,55.467c10.24,23.04,14.507,46.933,14.507,72.533C401.92,249.173,350.72,315.733,252.587,315.733z
	 M124.587,8.533c-25.6,0-46.933,21.333-46.933,46.933S98.987,102.4,124.587,102.4c1.707,0,2.56,0.853,3.413,1.707
	c0.853,0.853,0.853,2.56,0,4.267c-11.093,23.04-17.067,48.64-17.067,75.093c0,61.44,48.64,123.733,140.8,123.733
	s140.8-62.293,140.8-123.733c0-26.453-5.973-52.053-17.067-75.093c-0.853-1.707-0.853-2.56,0-4.267
	c0.853-0.853,2.56-1.707,3.413-1.707c25.6,0,46.933-21.333,46.933-46.933S404.48,8.533,378.88,8.533
	c-22.187,0-40.96,14.507-45.227,34.987c11.947,8.533,22.187,19.627,31.573,32.427c1.707,1.707,0.853,4.267-0.853,5.973
	c-1.707,1.707-4.267,0.853-5.973-0.853C331.947,45.227,293.547,25.6,250.88,25.6c-28.16,0-53.76,7.68-75.947,23.893l0,0
	c-11.947,8.533-22.187,18.773-31.573,31.573c-1.707,1.707-4.267,2.56-5.973,0.853c-1.707-1.707-2.56-4.267-0.853-5.973
	C145.92,64,156.16,52.907,168.107,44.373C164.693,23.04,146.774,8.533,124.587,8.533z M252.587,281.6
	c-44.373,0-81.067-29.013-81.067-64c0-34.133,34.987-72.533,81.067-72.533s81.067,38.4,81.067,72.533
	C333.654,252.587,296.96,281.6,252.587,281.6z M252.587,153.6c-40.96,0-72.533,34.133-72.533,64
	c0,30.72,32.427,55.467,72.533,55.467S325.12,248.32,325.12,217.6C325.12,187.733,293.547,153.6,252.587,153.6z M279.04,238.933
	c-1.707,0-2.56,0-4.267,0c-10.24-2.56-17.92-11.947-22.187-19.627c-4.267,7.68-11.947,17.067-22.187,19.627
	c-7.68,1.707-15.36-1.707-23.04-9.387c-1.707-1.707-1.707-4.267,0-5.973c1.707-1.707,4.267-1.707,5.973,0
	c5.12,5.12,11.093,7.68,15.36,6.827c10.24-1.707,17.92-17.067,20.48-22.187c1.707-3.413,6.827-3.413,7.68,0
	c2.56,5.12,10.24,20.48,20.48,22.187c5.12,0.853,10.24-0.853,15.36-6.827c1.707-1.707,4.267-1.707,5.973,0
	c1.707,1.707,1.707,4.267,0,5.973C291.84,235.52,285.867,238.933,279.04,238.933z M252.587,204.8
	c-11.093,0-21.333-10.24-21.333-21.333c0-7.68,11.093-11.093,21.333-11.093s21.333,2.56,21.333,11.093
	C273.92,194.56,263.68,204.8,252.587,204.8z M239.787,183.467c0,5.973,6.827,12.8,12.8,12.8s12.8-6.827,12.8-12.8
	c-0.853,0-5.12-2.56-12.8-2.56C244.907,181.76,240.64,182.613,239.787,183.467z M308.054,128c-5.12,0-8.533-3.413-8.533-8.533
	c0-5.12,3.413-8.533,8.533-8.533s8.533,3.413,8.533,8.533C316.587,124.587,313.174,128,308.054,128z M197.12,128
	c-5.12,0-8.533-3.413-8.533-8.533c0-5.12,3.413-8.533,8.533-8.533s8.533,3.413,8.533,8.533C205.654,124.587,202.24,128,197.12,128z
	 M112.64,71.68c-0.853,0-2.56,0-3.413-0.853c-8.533-8.533-8.533-22.187,0-29.867c8.533-8.533,22.187-8.533,29.867,0
	c1.707,1.707,1.707,4.267,0,5.973c-1.707,1.707-4.267,1.707-5.973,0c-5.12-5.12-12.8-5.12-17.92,0c-5.12,5.12-5.12,12.8,0,17.92
	c1.707,1.707,1.707,4.267,0,5.973C114.347,71.68,113.494,71.68,112.64,71.68z M392.533,71.68c-0.853,0-2.56,0-3.413-0.853
	c-1.707-1.707-1.707-4.267,0-5.973c5.12-5.12,5.12-12.8,0-17.92s-12.8-5.12-17.92,0c-1.707,1.707-4.267,1.707-5.973,0
	s-1.707-4.267,0-5.973c8.533-8.533,22.187-8.533,29.867,0c8.533,8.533,8.533,22.187,0,29.867
	C395.094,71.68,393.387,71.68,392.533,71.68z"/>
<g>
</g>
<g>
</g>
<g>
</g>
<g>
</g>
<g>
</g>
<g>
</g>
<g>
</g>
<g>
</g>
<g>
</g>
<g>
</g>
<g>
</g>
<g>
</g>
<g>
</g>
<g>
</g>
<g>
</g>
</svg>
