<?xml version="1.0" encoding="iso-8859-1"?>
<!-- Generator: Adobe Illustrator 19.0.0, SVG Export Plug-In . SVG Version: 6.00 Build 0)  -->
<svg version="1.1" id="Layer_1" xmlns="http://www.w3.org/2000/svg" xmlns:xlink="http://www.w3.org/1999/xlink" x="0px" y="0px"
	 viewBox="0 0 512 512" style="enable-background:new 0 0 512 512;" xml:space="preserve">
<g>
	<g>
		<g>
			<path d="M234.513,246.613c9.378-1.929,16.555-9.02,21.487-15.863c4.932,6.844,12.109,13.935,21.487,15.863
				c1.459,0.299,3.089,0.486,4.873,0.486c6.118,0,13.978-2.304,22.34-10.667c3.337-3.337,3.337-8.73,0-12.066s-8.73-3.337-12.066,0
				c-4.361,4.369-8.337,6.212-11.699,5.53c-6.912-1.408-13.611-12.203-16.401-18.364c9.523-3.866,17.067-13.577,17.067-23.799
				c0-9.353-9.566-14.933-25.6-14.933c-16.026,0-25.6,5.581-25.6,14.933c0,10.223,7.535,19.934,17.067,23.799
				c-2.807,6.178-9.498,16.956-16.401,18.364c-3.405,0.666-7.339-1.178-11.699-5.53c-3.336-3.337-8.73-3.337-12.066,0
				s-3.337,8.73,0,12.066C218.104,247.236,228.062,247.91,234.513,246.613z M263.748,190.669c-1.502,2.944-4.873,5.598-7.748,5.598
				s-6.246-2.654-7.748-5.598C251.793,189.833,260.207,189.833,263.748,190.669z"/>
			<path d="M390.033,53.7c1.621,1.613,2.5,3.755,2.5,6.033s-0.879,4.42-2.5,6.025c-3.337,3.337-3.337,8.738,0,12.075
				c1.664,1.664,3.849,2.5,6.033,2.5s4.369-0.836,6.033-2.492c4.838-4.838,7.501-11.273,7.501-18.108s-2.662-13.269-7.501-18.099
				c-9.984-9.984-26.214-9.984-36.198,0c-3.337,3.328-3.337,8.73,0,12.066s8.73,3.337,12.066,0
				C381.303,50.372,386.697,50.372,390.033,53.7z"/>
			<path d="M311.467,136.533c7.057,0,12.8-5.743,12.8-12.8c0-7.057-5.743-12.8-12.8-12.8s-12.8,5.743-12.8,12.8
				C298.667,130.79,304.41,136.533,311.467,136.533z"/>
			<path d="M200.533,136.533c7.057,0,12.8-5.743,12.8-12.8c0-7.057-5.743-12.8-12.8-12.8s-12.8,5.743-12.8,12.8
				C187.733,130.79,193.476,136.533,200.533,136.533z"/>
			<path d="M115.934,80.333c2.185,0,4.369-0.836,6.042-2.5c3.328-3.337,3.328-8.738-0.009-12.075c-1.613-1.604-2.5-3.746-2.5-6.025
				s0.887-4.42,2.509-6.033c3.209-3.226,8.841-3.226,12.058,0c3.328,3.337,8.738,3.328,12.066,0
				c3.337-3.328,3.337-8.738,0.009-12.066c-9.677-9.677-26.539-9.668-36.207-0.009c-4.838,4.838-7.501,11.273-7.501,18.108
				s2.662,13.269,7.501,18.108C111.565,79.497,113.749,80.333,115.934,80.333z"/>
			<path d="M498.552,286.191c-28.262-23.945-91.742-14.2-98.884-13.005c-4.651,0.768-7.791,5.171-7.014,9.813
				c0.777,4.651,5.171,7.799,9.813,7.014c17.246-2.867,66.133-6.827,85.052,9.199c5.06,4.284,7.415,9.54,7.415,16.521
				c0,3.977-1.476,6.946-4.779,9.626c-24.098,19.567-114.33,5.982-147.063-0.913c-3.703-0.776-7.441,0.981-9.242,4.275
				c-1.801,3.311-1.212,7.424,1.434,10.095c0.12,0.119,8.499,8.755,12.493,19.951c-2.125-0.222-4.267-0.367-6.443-0.367
				c-37.641,0-68.267,34.458-68.267,76.8c0,7.629,1.024,14.993,2.884,21.956c-3.823,1.715-10.197,3.644-19.951,3.644
				c-10.052,0-16.367-2.082-19.908-3.814c1.826-6.912,2.842-14.217,2.842-21.786c0-42.342-30.626-76.8-68.267-76.8
				c-2.176,0-4.318,0.145-6.443,0.367c3.994-11.196,12.373-19.831,12.476-19.934c2.671-2.671,3.268-6.775,1.468-10.095
				c-1.792-3.319-5.521-5.069-9.259-4.292c-32.725,6.895-122.974,20.48-147.063,0.913c-3.302-2.68-4.779-5.649-4.779-9.626
				c0-6.98,2.355-12.228,7.407-16.512c18.867-15.991,67.806-12.066,85.06-9.208c4.651,0.794,9.045-2.364,9.813-7.014
				c0.776-4.651-2.364-9.045-7.006-9.813c-7.151-1.195-70.613-10.957-98.884,13.005C4.651,293.649,0,303.863,0,315.733
				c0,9.079,3.831,16.998,11.093,22.886c27.179,22.05,102.818,12.783,140.535,6.426c-2.825,5.47-5.188,11.896-6.11,18.825
				c-25.216,11.29-43.119,38.98-43.119,71.33c0,42.342,30.626,76.8,68.267,76.8c25.446,0,47.642-15.778,59.383-39.057
				c5.743,2.56,14.174,4.924,25.95,4.924c11.674,0,20.164-2.287,26.035-4.77C293.794,496.29,315.938,512,341.333,512
				c37.641,0,68.267-34.458,68.267-76.8c0-32.35-17.903-60.041-43.119-71.33c-0.922-6.929-3.277-13.355-6.101-18.825
				c37.717,6.357,113.365,15.633,140.527-6.426c7.262-5.888,11.093-13.807,11.093-22.886
				C512,303.863,507.349,293.649,498.552,286.191z M170.667,494.933c-28.237,0-51.2-26.795-51.2-59.733s22.963-59.733,51.2-59.733
				s51.2,26.795,51.2,59.733S198.904,494.933,170.667,494.933z M392.533,435.2c0,32.939-22.963,59.733-51.2,59.733
				c-20.983,0-39.04-14.814-46.942-35.942c-0.145-0.614-0.324-1.186-0.606-1.766c-2.338-6.818-3.652-14.242-3.652-22.025
				c0-32.939,22.963-59.733,51.2-59.733C369.57,375.467,392.533,402.261,392.533,435.2z"/>
			<path d="M307.2,443.733c0,18.825,15.309,34.133,34.133,34.133c18.825,0,34.133-15.309,34.133-34.133
				c0-18.825-15.309-34.133-34.133-34.133C322.509,409.6,307.2,424.909,307.2,443.733z M358.4,443.733
				c0,9.412-7.654,17.067-17.067,17.067c-9.404,0-17.067-7.654-17.067-17.067c0-9.412,7.663-17.067,17.067-17.067
				C350.746,426.667,358.4,434.321,358.4,443.733z"/>
			<path d="M115.541,118.161c-8.619,21.709-13.141,45.525-13.141,69.572c0,67.849,52.762,136.533,153.6,136.533
				s153.6-68.685,153.6-136.533c0-24.491-4.412-47.846-13.107-69.581c26.957-5.76,47.24-29.764,47.24-58.419
				C443.733,26.795,416.93,0,384,0c-24.67,0-46.14,14.916-55.108,36.745C307.115,23.859,282.368,17.067,256,17.067
				c-26.615,0-51.2,6.716-73.259,19.925C174.08,14.754,153.088,0,128,0C95.061,0,68.267,26.795,68.267,59.733
				C68.267,88.397,88.559,112.41,115.541,118.161z M128,17.067c19.226,0,35.021,12.177,40.115,30.054
				c-11.085,8.61-21.163,18.816-29.901,30.592c-2.807,3.789-2.014,9.131,1.775,11.938c3.789,2.816,9.139,2.022,11.938-1.766
				c8.9-12.006,19.26-22.281,30.788-30.507C204.288,41.95,228.949,34.133,256,34.133c41.429,0,78.396,19.098,104.098,53.786
				c1.681,2.253,4.25,3.447,6.869,3.447c1.766,0,3.55-0.546,5.077-1.681c3.78-2.799,4.574-8.149,1.775-11.938
				c-8.969-12.092-19.157-22.485-30.345-31.104c5.427-17.374,21.632-29.577,40.525-29.577c23.526,0,42.667,19.14,42.667,42.667
				S407.526,102.4,384,102.4c-2.935,0-5.658,1.502-7.228,3.985c-1.553,2.483-1.732,5.589-0.461,8.243
				c10.761,22.443,16.222,47.044,16.222,73.105C392.533,247.1,345.634,307.2,256,307.2s-136.533-60.1-136.533-119.467
				c0-25.617,5.615-50.901,16.23-73.122c1.263-2.637,1.084-5.751-0.478-8.226c-1.562-2.483-4.292-3.985-7.219-3.985
				c-23.526,0-42.667-19.14-42.667-42.667S104.474,17.067,128,17.067z"/>
			<path d="M256,290.133c47.053,0,85.333-30.626,85.333-68.267c0-36.258-36.489-76.8-85.333-76.8s-85.333,40.542-85.333,76.8
				C170.667,259.507,208.947,290.133,256,290.133z M256,162.133c38.451,0,68.267,32.111,68.267,59.733
				c0,28.237-30.626,51.2-68.267,51.2c-37.641,0-68.267-22.963-68.267-51.2C187.733,194.244,217.557,162.133,256,162.133z"/>
			<path d="M170.667,409.6c-18.825,0-34.133,15.309-34.133,34.133c0,18.825,15.309,34.133,34.133,34.133
				s34.133-15.309,34.133-34.133C204.8,424.909,189.491,409.6,170.667,409.6z M170.667,460.8c-9.412,0-17.067-7.654-17.067-17.067
				c0-9.412,7.654-17.067,17.067-17.067c9.412,0,17.067,7.654,17.067,17.067C187.733,453.146,180.079,460.8,170.667,460.8z"/>
		</g>
	</g>
</g>
<g>
</g>
<g>
</g>
<g>
</g>
<g>
</g>
<g>
</g>
<g>
</g>
<g>
</g>
<g>
</g>
<g>
</g>
<g>
</g>
<g>
</g>
<g>
</g>
<g>
</g>
<g>
</g>
<g>
</g>
</svg>
