<?xml version="1.0" encoding="iso-8859-1"?>
<!-- Generator: Adobe Illustrator 19.0.0, SVG Export Plug-In . SVG Version: 6.00 Build 0)  -->
<svg version="1.1" id="Layer_1" xmlns="http://www.w3.org/2000/svg" xmlns:xlink="http://www.w3.org/1999/xlink" x="0px" y="0px"
	 viewBox="0 0 511.995 511.995" style="enable-background:new 0 0 511.995 511.995;" xml:space="preserve">
<g>
	<g>
		<path d="M509.989,409.167c-3.797-5.948-11.75-7.663-17.673-3.925c-25.566,16.273-53.291,29.491-82.364,39.68
			c2.671-157.329,29.107-277.129,42.231-336.162c5.973-26.872,8.61-39.117,8.61-47.957c0-32.341-43.896-36.523-79.172-39.885
			c-33.28-3.166-77.901-4.915-125.628-4.915s-92.348,1.749-125.628,4.915c-35.277,3.362-79.172,7.543-79.172,39.885
			c0,8.841,2.637,21.086,8.61,47.949c13.124,59.034,39.552,178.833,42.232,336.162c-29.073-10.197-56.798-23.415-82.364-39.68
			c-5.897-3.738-13.824-2.022-17.673,3.925c-3.797,5.965-2.022,13.875,3.925,17.673c72.448,46.097,161.271,69.163,250.069,69.163
			s177.621-23.066,250.069-69.163C512.02,423.042,513.795,415.123,509.989,409.167z M345.595,43.94
			c8.994,0.512,17.553,1.101,25.6,1.775v168.687h-25.6V43.94z M294.395,42.02c8.687,0.179,17.254,0.418,25.6,0.725v171.657h-25.6
			V42.02z M243.195,41.662c4.267-0.026,8.525-0.06,12.8-0.06s8.533,0.026,12.8,0.06v172.74h-25.6V41.662z M191.995,42.745
			c8.346-0.307,16.913-0.546,25.6-0.725v172.382h-25.6V42.745z M140.795,45.715c8.047-0.674,16.606-1.263,25.6-1.775v170.462h-25.6
			V45.715z M76.795,60.802c0-5.188,14.899-9.31,38.4-12.399v165.999h-8.533C92.633,129.376,76.795,75.07,76.795,60.802z
			 M391.786,316.802l-2.415,25.6c-1.357,16.41-2.389,33.621-3.26,51.2l-1.161,25.6c-0.358,10.991-0.538,22.323-0.666,33.715
			c-82.688,23.407-173.884,23.407-256.572,0c-0.128-11.392-0.307-22.724-0.666-33.715l-1.161-25.6
			c-0.87-17.579-1.911-34.79-3.26-51.2l-2.406-25.6c-2.731-27.529-6.007-53.154-9.523-76.8h290.611
			C397.793,263.648,394.516,289.273,391.786,316.802z M396.795,214.402V48.403c23.501,3.089,38.4,7.211,38.4,12.399
			c0,14.268-15.829,68.574-29.867,153.6H396.795z"/>
	</g>
</g>
<g>
	<g>
		<path d="M302.689,377.372l9.566-9.318l37.154-36.215l-51.337-7.458l-13.218-1.92l-5.905-11.972l-22.955-46.524l-22.955,46.515
			l-5.914,11.972l-13.218,1.92l-51.336,7.458l37.146,36.207l9.566,9.318l-2.261,13.158l-8.772,51.123l45.909-24.141l11.836-6.195
			l11.819,6.212l45.909,24.141l-8.772-51.123L302.689,377.372z M279.726,394.856l-23.731-12.476l-23.731,12.476l4.531-26.428
			l-19.2-18.714l26.53-3.857l11.87-24.047l11.861,24.047l26.53,3.857l-19.2,18.714L279.726,394.856z"/>
	</g>
</g>
<g>
</g>
<g>
</g>
<g>
</g>
<g>
</g>
<g>
</g>
<g>
</g>
<g>
</g>
<g>
</g>
<g>
</g>
<g>
</g>
<g>
</g>
<g>
</g>
<g>
</g>
<g>
</g>
<g>
</g>
</svg>
