<?xml version="1.0" encoding="iso-8859-1"?>
<!-- Generator: Adobe Illustrator 19.0.0, SVG Export Plug-In . SVG Version: 6.00 Build 0)  -->
<svg version="1.1" id="Layer_1" xmlns="http://www.w3.org/2000/svg" xmlns:xlink="http://www.w3.org/1999/xlink" x="0px" y="0px"
	 viewBox="0 0 511.995 511.995" style="enable-background:new 0 0 511.995 511.995;" xml:space="preserve">
<path style="fill:#6FB0B6;" d="M255.995,483.279c-45.15,0-89.481-6.076-131.772-18.039l-9.199-2.611l-0.111-9.557
	c-0.137-11.307-0.299-22.545-0.657-33.442l-1.161-25.438c-0.947-19.294-2.005-35.9-3.226-50.731l-2.389-25.446
	c-2.483-25.037-5.658-50.662-9.438-76.117l-2.176-14.686h320.29l-2.176,14.686c-3.78,25.455-6.963,51.081-9.446,76.186
	l-2.398,25.532c-1.212,14.686-2.27,31.292-3.217,50.637l-1.161,25.549c-0.358,10.743-0.521,21.973-0.657,33.28l-0.111,9.557
	l-9.199,2.611C345.475,477.203,301.145,483.279,255.995,483.279z"/>
<path style="fill:#E9EBEF;" d="M127.995,227.202V33.948l11.733-0.981c8.158-0.683,16.836-1.28,25.95-1.801l13.517-0.759V227.21
	h-51.2V227.202z"/>
<g>
	<path style="fill:#FF877F;" d="M179.195,227.202V30.406l12.331-0.461c8.405-0.307,17.05-0.538,25.796-0.734l13.073-0.265v198.255
		H179.195z"/>
	<path style="fill:#FF877F;" d="M95.798,227.202l-1.766-10.718c-7.671-46.464-15.804-83.345-21.743-110.268
		c-5.171-23.45-8.294-37.606-8.294-45.414c0-15.531,18.159-20.966,49.527-25.088l14.473-1.903v193.391H95.798z"/>
</g>
<polygon style="fill:#E9EBEF;" points="230.395,227.202 230.395,28.938 255.995,28.802 281.595,28.938 281.595,227.202 "/>
<path style="fill:#FF877F;" d="M281.595,227.202V28.947l13.073,0.273c8.747,0.188,17.391,0.427,25.796,0.734l12.331,0.452v196.796
	H281.595z"/>
<g>
	<path style="fill:#E9EBEF;" d="M332.795,227.202V30.406l13.517,0.759c9.114,0.521,17.792,1.118,25.95,1.801l11.733,0.981v193.254
		H332.795z"/>
	<polygon style="fill:#E9EBEF;" points="255.995,396.836 215.265,418.255 223.039,372.892 190.092,340.781 235.626,334.15 
		255.995,292.883 276.355,334.15 321.898,340.781 288.951,372.892 296.724,418.255 	"/>
</g>
<path style="fill:#FF877F;" d="M383.986,227.202V33.811l14.473,1.903c31.369,4.122,49.536,9.557,49.536,25.088
	c0,7.808-3.123,21.965-8.294,45.414c-5.939,26.923-14.071,63.804-21.743,110.268l-1.766,10.718H383.986z"/>
<g>
	<path style="fill:#573A32;" d="M509.989,409.167c-3.797-5.948-11.75-7.663-17.673-3.925c-25.566,16.273-53.291,29.491-82.364,39.68
		c2.671-157.329,29.107-277.129,42.232-336.162c5.973-26.871,8.61-39.117,8.61-47.957c0-32.341-43.895-36.523-79.172-39.885
		c-33.28-3.166-77.901-4.915-125.628-4.915s-92.348,1.749-125.628,4.915c-35.277,3.362-79.172,7.543-79.172,39.885
		c0,8.841,2.637,21.086,8.61,47.949c13.124,59.034,39.552,178.833,42.231,336.162c-29.073-10.197-56.798-23.415-82.364-39.68
		c-5.897-3.738-13.824-2.022-17.673,3.925c-3.797,5.965-2.022,13.875,3.925,17.673c72.448,46.097,161.271,69.163,250.069,69.163
		s177.621-23.066,250.069-69.163C512.02,423.042,513.795,415.123,509.989,409.167z M345.595,43.94
		c8.994,0.512,17.553,1.101,25.6,1.775v168.687h-25.6V43.94z M294.395,42.02c8.687,0.179,17.254,0.418,25.6,0.725v171.657h-25.6
		V42.02z M243.195,41.662c4.267-0.026,8.525-0.06,12.8-0.06s8.533,0.026,12.8,0.06v172.74h-25.6V41.662z M191.995,42.745
		c8.346-0.307,16.913-0.546,25.6-0.725v172.382h-25.6V42.745z M140.795,45.715c8.047-0.674,16.606-1.263,25.6-1.775v170.462h-25.6
		V45.715z M76.795,60.802c0-5.188,14.899-9.31,38.4-12.399v165.999h-8.533C92.633,129.376,76.795,75.07,76.795,60.802z
		 M391.777,316.802l-2.406,25.6c-1.357,16.41-2.389,33.621-3.26,51.2l-1.161,25.6c-0.358,10.991-0.538,22.323-0.666,33.715
		c-82.688,23.407-173.884,23.407-256.572,0c-0.128-11.392-0.307-22.724-0.666-33.715l-1.161-25.6
		c-0.87-17.579-1.911-34.79-3.26-51.2l-2.406-25.6c-2.731-27.529-6.007-53.154-9.523-76.8h290.611
		C397.785,263.648,394.499,289.273,391.777,316.802z M396.795,214.402V48.403c23.501,3.089,38.4,7.211,38.4,12.399
		c0,14.268-15.829,68.574-29.867,153.6H396.795z"/>
	<path style="fill:#573A32;" d="M209.283,377.363l-2.261,13.158l-8.772,51.123l45.909-24.141l11.836-6.204l11.819,6.212
		l45.909,24.141l-8.772-51.123l-2.261-13.158l9.566-9.318l37.146-36.207l-51.337-7.458l-13.218-1.92l-5.914-11.972l-22.938-46.532
		l-22.955,46.515l-5.914,11.972l-13.218,1.92l-51.337,7.458l37.146,36.207L209.283,377.363z M244.125,345.858l11.87-24.047
		l11.87,24.047l26.53,3.857l-19.2,18.714l4.531,26.428l-23.731-12.476l-23.731,12.476l4.531-26.428l-19.2-18.714L244.125,345.858z"
		/>
</g>
<g>
</g>
<g>
</g>
<g>
</g>
<g>
</g>
<g>
</g>
<g>
</g>
<g>
</g>
<g>
</g>
<g>
</g>
<g>
</g>
<g>
</g>
<g>
</g>
<g>
</g>
<g>
</g>
<g>
</g>
</svg>
