<?xml version="1.0" encoding="iso-8859-1"?>
<!-- Generator: Adobe Illustrator 19.0.0, SVG Export Plug-In . SVG Version: 6.00 Build 0)  -->
<svg version="1.1" id="Capa_1" xmlns="http://www.w3.org/2000/svg" xmlns:xlink="http://www.w3.org/1999/xlink" x="0px" y="0px"
	 viewBox="0 0 480 480" style="enable-background:new 0 0 480 480;" xml:space="preserve">
<path id="XMLID_2240_" d="M240,85c0-5.522,4.478-10,10-10h2c5.522,0,10,4.478,10,10s-4.478,10-10,10h-2
	C244.478,95,240,90.522,240,85z M390.006,195.002c1.394,0,2.811-0.293,4.16-0.911l36.363-16.666
	c5.021-2.302,7.225-8.236,4.924-13.258c-2.301-5.02-8.233-7.224-13.258-4.924l-36.361,16.666c-5.021,2.302-7.226,8.236-4.925,13.257
	C382.592,192.837,386.216,195.002,390.006,195.002z M70,95h130c5.522,0,10-4.478,10-10s-4.478-10-10-10H70c-5.522,0-10,4.478-10,10
	S64.478,95,70,95z M460.913,162.503c1.394,0,2.81-0.292,4.159-0.91l1.818-0.833c5.021-2.301,7.227-8.235,4.927-13.257
	c-2.302-5.021-8.236-7.227-13.257-4.927l-1.818,0.833c-5.021,2.301-7.227,8.235-4.927,13.257
	C453.498,160.338,457.123,162.503,460.913,162.503z M466.891,299.24l-1.818-0.833c-5.021-2.302-10.955-0.094-13.257,4.927
	c-2.3,5.021-0.094,10.956,4.927,13.257l1.818,0.833c1.35,0.618,2.766,0.91,4.159,0.91c3.79,0,7.415-2.166,9.098-5.837
	C474.117,307.476,471.911,301.541,466.891,299.24z M430,220h-40c-5.522,0-10,4.478-10,10s4.478,10,10,10h40c5.522,0,10-4.478,10-10
	S435.522,220,430,220z M470,220h-2c-5.522,0-10,4.478-10,10s4.478,10,10,10h2c5.522,0,10-4.478,10-10S475.522,220,470,220z M360,210
	v40c0,16.542-13.458,30-30,30h-0.417c-2.387,14.171-14.744,25-29.583,25h-30.712c-4.867,33.878-34.085,60-69.288,60h-34.95
	l-5.054,50.533C159.711,437.345,141.878,455,120,455H90c-22.056,0-40-17.944-40-40V315c0-5.514-4.486-10-10-10H30
	c-16.542,0-30-13.458-30-30v-50c0-26.192,14.459-49.07,35.815-61.071C14.347,150.72,0,127.003,0,100c0-41.355,33.645-75,75-75h170
	c41.355,0,75,33.645,75,75c0,21.707-9.271,41.292-24.061,55H300c14.839,0,27.196,10.829,29.583,25H330
	C346.542,180,360,193.458,360,210z M75,155h170c30.327,0,55-24.673,55-55s-24.673-55-55-55H75c-30.327,0-55,24.673-55,55
	S44.673,155,75,155z M248.995,305H180c-5.514,0-10,4.486-10,10c0,0.332-0.017,0.664-0.05,0.995L167.05,345H200
	C224.146,345,244.35,327.794,248.995,305z M340,210c0-5.514-4.486-10-10-10h-10c-5.522,0-10-4.478-10-10v-5c0-5.514-4.486-10-10-10
	H70c-27.57,0-50,22.43-50,50v50c0,5.514,4.486,10,10,10h10c16.542,0,30,13.458,30,30v100c0,11.028,8.972,20,20,20h30
	c11.028,0,20-8.972,20-20c0-0.332,0.017-0.664,0.05-0.995l9.955-99.553C150.298,298.162,163.641,285,180,285h120
	c5.514,0,10-4.486,10-10v-5c0-5.522,4.478-10,10-10h10c5.514,0,10-4.486,10-10V210z M430.529,282.575l-36.363-16.666
	c-5.017-2.303-10.955-0.098-13.257,4.925c-2.301,5.021-0.097,10.955,4.925,13.257l36.361,16.666
	c1.351,0.618,2.767,0.911,4.161,0.911c3.789,0,7.414-2.165,9.097-5.835C437.754,290.812,435.55,284.877,430.529,282.575z M155,235
	c0,3.147-1.481,6.111-4,8l-32,24c-6.88,5.159-15.402,8-24,8c-22.056,0-40-17.944-40-40s17.944-40,40-40
	c8.598,0,17.12,2.841,23.999,8L151,227C153.519,228.889,155,231.853,155,235z M128.333,235L107,219c-3.439-2.579-7.701-4-12-4
	c-11.028,0-20,8.972-20,20s8.972,20,20,20c4.299,0,8.561-1.421,12.001-4L128.333,235z"/>
<g>
</g>
<g>
</g>
<g>
</g>
<g>
</g>
<g>
</g>
<g>
</g>
<g>
</g>
<g>
</g>
<g>
</g>
<g>
</g>
<g>
</g>
<g>
</g>
<g>
</g>
<g>
</g>
<g>
</g>
</svg>
