<?xml version="1.0" encoding="iso-8859-1"?>
<!-- Generator: Adobe Illustrator 18.0.0, SVG Export Plug-In . SVG Version: 6.00 Build 0)  -->
<!DOCTYPE svg PUBLIC "-//W3C//DTD SVG 1.1//EN" "http://www.w3.org/Graphics/SVG/1.1/DTD/svg11.dtd">
<svg version="1.1" id="Capa_1" xmlns="http://www.w3.org/2000/svg" xmlns:xlink="http://www.w3.org/1999/xlink" x="0px" y="0px"
	 viewBox="0 0 234.765 234.765" style="enable-background:new 0 0 234.765 234.765;" xml:space="preserve">
<g>
	<path d="M231.02,180.496c-3.585-2.074-8.173-0.85-10.248,2.736c-6.209,10.731-17.756,17.397-30.136,17.397
		s-23.927-6.666-30.135-17.397c-1.341-2.318-3.815-3.745-6.492-3.745c-2.677,0-5.152,1.427-6.492,3.745
		c-6.207,10.731-17.754,17.397-30.135,17.397c-12.379,0-23.926-6.666-30.134-17.397c-1.341-2.317-3.815-3.745-6.492-3.745
		c-2.677,0-5.151,1.427-6.492,3.745c-6.207,10.731-17.755,17.397-30.136,17.397c-12.379,0-23.926-6.666-30.135-17.397
		c-2.074-3.586-6.664-4.809-10.248-2.736c-3.585,2.074-4.81,6.663-2.736,10.248c8.881,15.35,25.403,24.886,43.119,24.886
		c14.023,0,27.299-5.975,36.628-16.077c9.329,10.103,22.604,16.077,36.626,16.077c14.023,0,27.298-5.974,36.628-16.077
		c9.329,10.103,22.604,16.077,36.626,16.077c17.716,0,34.238-9.536,43.12-24.886C235.83,187.159,234.605,182.57,231.02,180.496z"/>
	<path d="M124.279,122.621c7.473,7.472,17.408,11.587,27.975,11.587c10.567,0,20.502-4.115,27.974-11.587
		c7.472-7.472,11.587-17.406,11.587-27.974c0-10.566-4.115-20.501-11.587-27.974c-7.472-7.472-17.407-11.587-27.974-11.587
		c-10.567,0-20.501,4.115-27.975,11.587C108.854,82.099,108.854,107.197,124.279,122.621z M134.885,77.28
		c4.639-4.639,10.807-7.194,17.368-7.194c6.561,0,12.729,2.555,17.367,7.193c4.639,4.639,7.194,10.808,7.194,17.368
		c0,6.56-2.555,12.728-7.194,17.366c-4.639,4.639-10.807,7.194-17.367,7.194c-6.561,0-12.729-2.555-17.368-7.194
		C125.309,102.438,125.309,86.856,134.885,77.28z"/>
	<path d="M50.451,170.275c1.919,0,3.839-0.732,5.303-2.197l40.038-40.038l34.205,34.204c1.464,1.465,3.384,2.197,5.303,2.197
		c1.919,0,3.839-0.732,5.303-2.197c2.929-2.929,2.929-7.678,0-10.606L77.893,88.93l56.992-56.992c2.929-2.929,2.929-7.678,0-10.607
		c-2.929-2.929-7.678-2.929-10.606,0L61.984,83.627c-1.464,1.464-2.197,3.384-2.197,5.303c0,1.68,0.561,3.359,1.682,4.733
		c0.161,0.196,0.332,0.387,0.515,0.57l23.201,23.201l-40.037,40.038c-2.929,2.929-2.929,7.678,0,10.606
		C46.612,169.543,48.531,170.275,50.451,170.275z"/>
</g>
<g>
</g>
<g>
</g>
<g>
</g>
<g>
</g>
<g>
</g>
<g>
</g>
<g>
</g>
<g>
</g>
<g>
</g>
<g>
</g>
<g>
</g>
<g>
</g>
<g>
</g>
<g>
</g>
<g>
</g>
</svg>
