<?xml version="1.0" encoding="iso-8859-1"?>
<!-- Generator: Adobe Illustrator 19.0.0, SVG Export Plug-In . SVG Version: 6.00 Build 0)  -->
<svg version="1.1" id="Layer_1" xmlns="http://www.w3.org/2000/svg" xmlns:xlink="http://www.w3.org/1999/xlink" x="0px" y="0px"
	 viewBox="0 0 512 512" style="enable-background:new 0 0 512 512;" xml:space="preserve">
<path style="fill:#EDB311;" d="M378.433,222.609v44.522c0,12.295-9.966,22.261-22.261,22.261h-11.13v5.565
	c0,12.295-9.966,22.261-22.261,22.261H189.216c-12.295,0-22.261,9.966-22.261,22.261l-11.13,111.304
	c0,18.442-14.949,33.391-33.391,33.391h-33.39c-18.441,0-33.391-14.949-33.391-33.391V339.478c0-12.295-9.966-22.261-22.261-22.261
	h-11.13C9.966,317.217,0,307.251,0,294.957v-55.652c0-36.883,29.9-66.783,66.783-66.783h5.565C32.392,172.522,0,140.13,0,100.174
	l0,0c0-39.956,32.391-72.348,72.348-72.348h189.216c39.956,0,72.348,32.391,72.348,72.348l0,0c0,39.956-32.391,72.348-72.348,72.348
	h61.217c12.295,0,22.261,9.966,22.261,22.261v5.565h11.13C368.466,200.348,378.433,210.314,378.433,222.609z"/>
<path style="fill:#F7DB4F;" d="M333.057,89.043H0.854c5.354-34.672,35.322-61.217,71.494-61.217h189.216
	C297.735,27.826,327.703,54.371,333.057,89.043z"/>
<path style="fill:#FFFFFF;" d="M222.608,83.478c0,6.147-4.983,11.13-11.13,11.13H66.783c-6.147,0-11.13-4.983-11.13-11.13
	s4.983-11.13,11.13-11.13h144.695C217.624,72.348,222.608,77.331,222.608,83.478z M269.355,72.348h-2.226
	c-6.147,0-11.13,4.983-11.13,11.13s4.983,11.13,11.13,11.13h2.226c6.147,0,11.13-4.983,11.13-11.13S275.503,72.348,269.355,72.348z"
	/>
<path style="fill:#FF4800;" d="M289.39,306.087c0,49.099-39.944,89.043-89.043,89.043h-51.942c-6.147,0-11.13-4.983-11.13-11.13
	c0-6.147,4.983-11.13,11.13-11.13h51.942c36.824,0,66.783-29.959,66.783-66.783c0-6.147,4.983-11.13,11.13-11.13
	S289.39,299.94,289.39,306.087z"/>
<path style="fill:#782593;" d="M378.433,222.609v44.522c0,12.295-9.966,22.261-22.261,22.261h-11.13v5.565
	c0,12.295-9.966,22.261-22.261,22.261H189.216c-12.295,0-22.261,9.966-22.261,22.261l-11.13,111.304
	c0,18.442-14.949,33.391-33.391,33.391h-33.39c-18.441,0-33.391-14.949-33.391-33.391V339.478c0-12.295-9.966-22.261-22.261-22.261
	h-11.13C9.966,317.217,0,307.251,0,294.957v-55.652c0-36.883,29.9-66.783,66.783-66.783h255.999
	c12.295,0,22.261,9.966,22.261,22.261v5.565h11.13C368.466,200.348,378.433,210.314,378.433,222.609z"/>
<path style="fill:#934DAA;" d="M378.433,222.609H2.105c7.413-28.803,33.559-50.087,64.678-50.087h255.999
	c12.295,0,22.261,9.966,22.261,22.261v5.565h11.13C368.466,200.348,378.433,210.314,378.433,222.609z"/>
<path style="fill:#C92B00;" d="M378.433,222.609v44.522c0,12.295-9.966,22.261-22.261,22.261h-11.13v-89.043h11.13
	C368.466,200.348,378.433,210.314,378.433,222.609z"/>
<path style="fill:#A3E5BD;" d="M72.348,261.565L72.348,261.565c0-7.225,2.343-14.255,6.678-20.035l26.713-35.617l0,0l26.713,35.617
	c4.335,5.78,6.678,12.81,6.678,20.035l0,0c0,18.442-14.949,33.391-33.391,33.391l0,0C87.297,294.957,72.348,280.007,72.348,261.565z
	"/>
<path style="fill:#D9FCF5;" d="M89.043,261.565c0-9.22,7.475-16.696,16.696-16.696s16.696,7.475,16.696,16.696
	c0,9.22-7.475,16.696-16.696,16.696S89.043,270.786,89.043,261.565z"/>
<path style="fill:#A3E5BD;" d="M512,244.87c0,6.147-4.983,11.13-11.13,11.13h-2.226c-6.147,0-11.13-4.983-11.13-11.13
	s4.983-11.13,11.13-11.13h2.226C507.017,233.739,512,238.722,512,244.87z M456.348,233.739h-44.522
	c-6.147,0-11.13,4.983-11.13,11.13s4.983,11.13,11.13,11.13h44.522c6.147,0,11.13-4.983,11.13-11.13
	S462.495,233.739,456.348,233.739z M490.755,169.742c1.552,0,3.129-0.326,4.631-1.015l2.023-0.927
	c5.589-2.561,8.042-9.168,5.48-14.756c-2.561-5.587-9.167-8.042-14.756-5.48l-2.024,0.927c-5.587,2.561-8.042,9.168-5.479,14.756
	C482.503,167.333,486.537,169.742,490.755,169.742z M411.834,205.915c1.552,0,3.129-0.326,4.63-1.015l40.472-18.55
	c5.587-2.561,8.042-9.168,5.481-14.756c-2.561-5.589-9.168-8.042-14.756-5.481l-40.472,18.55c-5.587,2.561-8.042,9.168-5.481,14.756
	C403.581,203.506,407.615,205.915,411.834,205.915z M497.41,321.939l-2.023-0.927c-5.59-2.563-12.194-0.108-14.756,5.479
	c-2.561,5.589-0.108,12.195,5.479,14.756l2.024,0.927c1.504,0.689,3.08,1.015,4.631,1.015c4.218,0,8.253-2.411,10.125-6.495
	C505.452,331.107,502.999,324.5,497.41,321.939z M456.937,303.388l-40.472-18.55c-5.587-2.561-12.194-0.107-14.756,5.481
	c-2.561,5.589-0.107,12.195,5.481,14.756l40.472,18.55c1.503,0.689,3.079,1.015,4.63,1.015c4.218,0,8.253-2.411,10.125-6.496
	C464.978,312.556,462.525,305.949,456.937,303.388z"/>
<g>
</g>
<g>
</g>
<g>
</g>
<g>
</g>
<g>
</g>
<g>
</g>
<g>
</g>
<g>
</g>
<g>
</g>
<g>
</g>
<g>
</g>
<g>
</g>
<g>
</g>
<g>
</g>
<g>
</g>
</svg>
